<!-- Generated by IcoMoon.io -->
<svg version="1.1" xmlns="http://www.w3.org/2000/svg" width="1024" height="1024" viewBox="0 0 1024 1024">
<title></title>
<g id="icomoon-ignore">
</g>
<path fill="#e00" d="M452.992 489.515l199.936 157.653-132.352-326.912zM512 0c-282.837 0-512 229.163-512 512s229.163 512 512 512 512-229.163 512-512-229.163-512-512-512zM759.339 738.347c-0.469 20.096-17.195 35.925-37.333 35.413-10.069 0-17.749-3.84-28.331-12.501l-264.107-213.333-88.704 221.995h-76.715l223.872-537.813c5.291-13.397 18.219-22.187 32.597-21.589 13.909-0.597 26.88 8.064 31.659 21.589l203.691 490.411c1.92 4.736 3.413 9.984 3.413 14.848-0.043 0.384-0.043 0.384-0.043 0.981z"></path>
</svg>
